HIERARCHY
ROOT Hips
{
  OFFSET 5.72205e-005 65.662 3.42586
  CHANNELS 6 Xposition Yposition Zposition Zrotation Xrotation Yrotation
  JOINT Chest
  {
    OFFSET 0 8.7983 -4.7612
    CHANNELS 3 Zrotation Xrotation Yrotation
    JOINT Chest2
    {
      OFFSET 0 8.0291 0.4195
      CHANNELS 3 Zrotation Xrotation Yrotation
      JOINT Chest3
      {
        OFFSET 0 9.9351 -2.2114
        CHANNELS 3 Zrotation Xrotation Yrotation
        JOINT Neck
        {
          OFFSET 0 22.3885 -0.4656
          CHANNELS 3 Zrotation Xrotation Yrotation
          JOINT Head
          {
            OFFSET -0.0001 12.643 3.4389
            CHANNELS 3 Zrotation Xrotation Yrotation
            End Site
            {
              OFFSET 0.0001 17.6655 0.5274
            }
          }
        }
        JOINT LeftCollar
        {
          OFFSET 2.2603 21.606 7.4023
          CHANNELS 3 Zrotation Xrotation Yrotation
          JOINT LeftShoulder
          {
            OFFSET 13.5163 -1.1332 -5.0146
            CHANNELS 3 Zrotation Xrotation Yrotation
            JOINT LeftElbow
            {
              OFFSET -0.0995 -28.05 -0.2431
              CHANNELS 3 Zrotation Xrotation Yrotation
              JOINT LeftWrist
              {
                OFFSET 0.0679 -23.3996 -0.1402
                CHANNELS 3 Zrotation Xrotation Yrotation
                JOINT LeftFinger1
                {
                  OFFSET 0.7932 -9.069 2.5189
                  CHANNELS 3 Zrotation Xrotation Yrotation
                  JOINT LeftFinger11
                  {
                    OFFSET -0.8272 -3.3923 0.5977
                    CHANNELS 3 Zrotation Xrotation Yrotation
                    JOINT LeftFinger12
                    {
                      OFFSET -0.5649 -2.3158 0.4082
                      CHANNELS 3 Zrotation Xrotation Yrotation
                      End Site
                      {
                        OFFSET -0.4919 -1.6479 0.2673
                      }
                    }
                  }
                }
                JOINT LeftFinger2
                {
                  OFFSET 0.9159 -9.2044 0.2193
                  CHANNELS 3 Zrotation Xrotation Yrotation
                  JOINT LeftFinger21
                  {
                    OFFSET 0.0117 -4.1944 -0.0248
                    CHANNELS 3 Zrotation Xrotation Yrotation
                    JOINT LeftFinger22
                    {
                      OFFSET 0.0071 -2.3249 -0.0142
                      CHANNELS 3 Zrotation Xrotation Yrotation
                      End Site
                      {
                        OFFSET -0.1475 -2.0882 0.0028
                      }
                    }
                  }
                }
                JOINT LeftFinger3
                {
                  OFFSET 0.6113 -8.7231 -2.0637
                  CHANNELS 3 Zrotation Xrotation Yrotation
                  JOINT LeftFinger31
                  {
                    OFFSET -0.1927 -3.8059 -0.2383
                    CHANNELS 3 Zrotation Xrotation Yrotation
                    JOINT LeftFinger32
                    {
                      OFFSET -0.1091 -2.1688 -0.1362
                      CHANNELS 3 Zrotation Xrotation Yrotation
                      End Site
                      {
                        OFFSET -0.2358 -1.9176 -0.0906
                      }
                    }
                  }
                }
                JOINT LeftFinger4
                {
                  OFFSET -0.6151 -8.0947 -3.5641
                  CHANNELS 3 Zrotation Xrotation Yrotation
                  JOINT LeftFinger41
                  {
                    OFFSET -0.4882 -2.341 -0.6462
                    CHANNELS 3 Zrotation Xrotation Yrotation
                    JOINT LeftFinger42
                    {
                      OFFSET -0.3575 -1.7167 -0.4742
                      CHANNELS 3 Zrotation Xrotation Yrotation
                      End Site
                      {
                        OFFSET -0.4187 -1.5237 -0.3496
                      }
                    }
                  }
                }
                JOINT LeftFinger0
                {
                  OFFSET -1.42 -1.8761 1.4223
                  CHANNELS 3 Zrotation Xrotation Yrotation
                  JOINT LeftFinger01
                  {
                    OFFSET -1.1471 -3.4929 2.6334
                    CHANNELS 3 Zrotation Xrotation Yrotation
                    JOINT LeftFinger02
                    {
                      OFFSET -0.823 -2.3 1.6571
                      CHANNELS 3 Zrotation Xrotation Yrotation
                      End Site
                      {
                        OFFSET -0.5822 -1.6914 1.1582
                      }
                    }
                  }
                }
              }
            }
          }
        }
        JOINT RightCollar
        {
          OFFSET -2.2603 21.606 7.4023
          CHANNELS 3 Zrotation Xrotation Yrotation
          JOINT RightShoulder
          {
            OFFSET -13.5187 -1.1334 -5.0155
            CHANNELS 3 Zrotation Xrotation Yrotation
            JOINT RightElbow
            {
              OFFSET 0.0994 -28.0499 -0.2431
              CHANNELS 3 Zrotation Xrotation Yrotation
              JOINT RightWrist
              {
                OFFSET -0.0679 -23.3996 -0.1402
                CHANNELS 3 Zrotation Xrotation Yrotation
                JOINT RightFinger1
                {
                  OFFSET -0.7932 -9.0691 2.5189
                  CHANNELS 3 Zrotation Xrotation Yrotation
                  JOINT RightFinger11
                  {
                    OFFSET 0.8272 -3.3923 0.5977
                    CHANNELS 3 Zrotation Xrotation Yrotation
                    JOINT RightFinger12
                    {
                      OFFSET 0.565 -2.3158 0.4082
                      CHANNELS 3 Zrotation Xrotation Yrotation
                      End Site
                      {
                        OFFSET 0.4919 -1.6479 0.2673
                      }
                    }
                  }
                }
                JOINT RightFinger2
                {
                  OFFSET -0.916 -9.2044 0.2193
                  CHANNELS 3 Zrotation Xrotation Yrotation
                  JOINT RightFinger21
                  {
                    OFFSET -0.0117 -4.1944 -0.0248
                    CHANNELS 3 Zrotation Xrotation Yrotation
                    JOINT RightFinger22
                    {
                      OFFSET -0.0071 -2.3249 -0.0142
                      CHANNELS 3 Zrotation Xrotation Yrotation
                      End Site
                      {
                        OFFSET 0.1475 -2.0882 0.0028
                      }
                    }
                  }
                }
                JOINT RightFinger3
                {
                  OFFSET -0.6113 -8.7231 -2.0637
                  CHANNELS 3 Zrotation Xrotation Yrotation
                  JOINT RightFinger31
                  {
                    OFFSET 0.1927 -3.8059 -0.2383
                    CHANNELS 3 Zrotation Xrotation Yrotation
                    JOINT RightFinger32
                    {
                      OFFSET 0.1091 -2.1688 -0.1362
                      CHANNELS 3 Zrotation Xrotation Yrotation
                      End Site
                      {
                        OFFSET 0.2358 -1.9176 -0.0906
                      }
                    }
                  }
                }
                JOINT RightFinger4
                {
                  OFFSET 0.6151 -8.0947 -3.564
                  CHANNELS 3 Zrotation Xrotation Yrotation
                  JOINT RightFinger41
                  {
                    OFFSET 0.4882 -2.341 -0.6462
                    CHANNELS 3 Zrotation Xrotation Yrotation
                    JOINT RightFinger42
                    {
                      OFFSET 0.3574 -1.7166 -0.4742
                      CHANNELS 3 Zrotation Xrotation Yrotation
                      End Site
                      {
                        OFFSET 0.4187 -1.5237 -0.3496
                      }
                    }
                  }
                }
                JOINT RightFinger0
                {
                  OFFSET 1.4199 -1.8761 1.4221
                  CHANNELS 3 Zrotation Xrotation Yrotation
                  JOINT RightFinger01
                  {
                    OFFSET 1.1472 -3.4929 2.6336
                    CHANNELS 3 Zrotation Xrotation Yrotation
                    JOINT RightFinger02
                    {
                      OFFSET 0.8229 -2.3 1.6571
                      CHANNELS 3 Zrotation Xrotation Yrotation
                      End Site
                      {
                        OFFSET 0.5822 -1.6914 1.1582
                      }
                    }
                  }
                }
              }
            }
          }
        }
      }
    }
  }
  JOINT RightHip
  {
    OFFSET -9.412 3.9771 -0.7758
    CHANNELS 3 Zrotation Xrotation Yrotation
    JOINT RightKnee
    {
      OFFSET -0.7531 -40.938 0
      CHANNELS 3 Zrotation Xrotation Yrotation
      JOINT RightAnkle
      {
        OFFSET 0 -40.1986 0
        CHANNELS 3 Zrotation Xrotation Yrotation
        JOINT RightToe
        {
          OFFSET 0 -4.4182 9.239
          CHANNELS 3 Zrotation Xrotation Yrotation
          End Site
          {
            OFFSET 0 0 6.1981
          }
        }
      }
    }
  }
  JOINT LeftHip
  {
    OFFSET 9.4119 3.9773 -0.7758
    CHANNELS 3 Zrotation Xrotation Yrotation
    JOINT LeftKnee
    {
      OFFSET 0.7532 -40.9383 0
      CHANNELS 3 Zrotation Xrotation Yrotation
      JOINT LeftAnkle
      {
        OFFSET 0 -40.1986 0
        CHANNELS 3 Zrotation Xrotation Yrotation
        JOINT LeftToe
        {
          OFFSET 0 -4.4182 9.239
          CHANNELS 3 Zrotation Xrotation Yrotation
          End Site
          {
            OFFSET 0 0 6.1981
          }
        }
      }
    }
  }
}
MOTION
Frames:	5
Frame Time:	0.0333333
5.72205e-005 65.662 3.42586 0 0 -0 0 0 -0 0 0 -0 0 0 -0 0 0 -0 0 0 -0 0 0 -12.5014 88.1196 14.2451 10.6914 -0.00160068 -0.00239207 0.000740045 -8.4365e-005 7.00714e-005 -9.52055e-007 9.93923e-017 -1.98785e-016 -1.59028e-015 9.93923e-017 -5.96354e-016 -1.59028e-015 -9.93923e-017 -5.96354e-016 -1.59028e-015 9.93923e-017 -1.98785e-016 -1.59028e-015 -0.0128176 0.00232552 8.52707e-005 9.93923e-017 5.96354e-016 -0 9.93923e-017 -1.98785e-016 -1.59028e-015 -0.0160551 0.00299681 0.000857156 -2.48481e-016 0 3.18055e-015 9.93923e-017 -1.98785e-016 -1.59028e-015 -0.0125865 0.0031206 0.00282719 0 1.98785e-016 -0 9.93923e-017 -1.98785e-016 -1.59028e-015 9.93923e-017 -5.96354e-016 -1.59028e-015 -9.93923e-017 -5.96354e-016 -1.59028e-015 -0.865644 0.16582 7.03859 -88.0329 10.2057 -10.5567 0.0015593 -0.00248883 -0.000788628 7.87605e-005 4.10553e-005 1.24965e-005 -3.97569e-016 -7.95139e-016 3.18055e-015 -1.98785e-016 -3.97569e-016 3.18055e-015 -1.98785e-016 0 3.18055e-015 -3.97569e-016 -7.95139e-016 3.18055e-015 0.0129473 0.00231697 -8.70038e-005 9.93923e-017 -7.95139e-016 1.59028e-015 -3.97569e-016 -7.95139e-016 3.18055e-015 0.0163314 0.00303369 -0.000872333 3.97569e-016 7.95139e-016 -3.18055e-015 -3.97569e-016 -7.95139e-016 3.18055e-015 0.0145763 0.00367772 -0.00326275 9.93923e-017 -3.97569e-016 -0 -3.97569e-016 -7.95139e-016 3.18055e-015 -1.98785e-016 -3.97569e-016 3.18055e-015 -1.98785e-016 0 3.18055e-015 3.42482 1.32465 -0.0626183 0.000117508 0.717283 0.000978199 -3.4257 -2.04197 -0.0604716 6.47761e-025 0 -0 -3.42483 1.34017 0.0627307 -0.000193936 0.682302 -0.0013703 3.42574 -2.02253 0.0595886 -8.45714e-024 0 -7.40531e-025 
-0.000123585 14.6933 11.7809 -8.89725e-015 15.0032 -180 0.0195143 -6.35511 -0.0869438 0.0295304 -12.7102 -0.17331 0.0295304 -12.7103 -0.173311 -1.29998e-007 -0.229047 6.06686e-008 1.10928e-007 -0.47387 -6.85175e-008 -8.00267 -0.194461 -12.5027 -4.51882 58.9394 37.3938 -1.44781 -7.86597 -0.354028 -6.88348 1.2593 -0.138004 1.33299e-007 8.55877e-007 5.15739e-009 7.99794e-008 4.23367e-007 3.09444e-009 5.33196e-008 4.32436e-007 2.06295e-009 1.33299e-007 8.55877e-007 5.15739e-009 -0.0128481 0.00233199 8.38414e-005 5.33194e-008 4.32438e-007 2.06512e-009 1.33299e-007 8.55877e-007 5.15739e-009 -0.0160657 0.00299912 0.000858692 3.47381e-008 7.66075e-007 2.71931e-006 1.33299e-007 8.55877e-007 5.15739e-009 -0.0125854 0.00312268 0.0028251 6.1555e-008 7.56879e-007 2.72044e-006 1.33299e-007 8.55877e-007 5.15739e-009 7.99794e-008 4.23367e-007 3.09444e-009 5.33196e-008 4.32436e-007 2.06295e-009 7.13351 -0.0288211 7.03349 -4.35139 60.2501 -26.1686 1.42265 -7.86649 0.24566 6.87368 1.25161 0.312714 -1.59748e-007 8.46621e-007 -1.03363e-008 1.06499e-007 -4.13917e-007 6.89088e-009 5.32494e-008 -4.32704e-007 3.44544e-009 -1.59748e-007 8.46621e-007 -1.03363e-008 0.0129222 0.00231135 -8.2362e-005 1.06499e-007 -4.1407e-007 6.89518e-009 -1.59748e-007 8.46621e-007 -1.03363e-008 0.016319 0.00303079 -0.000868596 5.04775e-008 1.72863e-008 -1.61214e-006 -1.59748e-007 8.46621e-007 -1.03363e-008 0.0145717 0.00367331 -0.00325889 5.32492e-008 -4.32563e-007 3.44885e-009 -1.59748e-007 8.46621e-007 -1.03363e-008 1.06499e-007 -4.13917e-007 6.89088e-009 5.32494e-008 -4.32704e-007 3.44544e-009 -40.0352 -21.4222 -27.3936 -150.336 35.3553 166.079 -12.7492 56.0973 -7.67752 4.07542e-007 1.02913e-007 -1.0785e-006 40.031 -21.4243 27.389 150.334 35.3547 -166.083 12.7489 56.0971 7.67357 -4.13307e-006 -2.28309e-006 -1.00565e-006 
-0.000140624 14.5995 11.736 -8.95527e-015 15.4443 -180 0.0195143 -6.35508 -0.0869438 0.0295304 -12.7102 -0.17331 0.0295304 -12.7103 -0.173311 0.0289503 -0.285752 0.0026034 7.98727e-008 -0.939216 7.20998e-008 -6.83572 0.290633 -13.7588 -6.82206 59.0966 39.2727 -3.38698 -8.95663 -0.662596 -5.84399 2.26405 -0.173733 2.19222e-007 1.27715e-006 -1.60979e-006 1.06634e-007 4.1426e-007 4.23082e-009 1.98785e-016 4.50505e-007 -0 2.19222e-007 1.27715e-006 -1.60979e-006 -0.012795 0.00232067 8.41285e-005 -6.67047e-006 1.7694e-006 1.35355e-006 2.19222e-007 1.27715e-006 -1.60979e-006 -0.0159991 0.00298655 0.000852599 4.74308e-008 4.34275e-007 1.62036e-006 2.19222e-007 1.27715e-006 -1.60979e-006 -0.0125674 0.003117 0.00282327 5.33166e-008 4.3243e-007 2.11833e-009 2.19222e-007 1.27715e-006 -1.60979e-006 1.06634e-007 4.1426e-007 4.23082e-009 1.98785e-016 4.50505e-007 -0 5.95981 0.44464 8.29845 -2.07893 60.6271 -28.0163 3.38566 -8.9527 0.58219 5.81096 2.24668 0.339361 1.59738e-007 -8.46479e-007 1.04944e-008 2.36554e-014 1.03368e-014 6.36111e-015 2.12984e-007 -1.27893e-006 1.39926e-008 1.59738e-007 -8.46479e-007 1.04944e-008 0.0129562 0.0023185 -8.76442e-005 3.35652e-006 4.72873e-007 1.83674e-006 1.59738e-007 -8.46479e-007 1.04944e-008 0.0163466 0.00303662 -0.000874851 1.61786e-007 -1.29639e-006 1.62672e-006 1.59738e-007 -8.46479e-007 1.04944e-008 0.0146172 0.00368568 -0.00327006 5.32457e-008 -4.34431e-007 3.50157e-009 1.59738e-007 -8.46479e-007 1.04944e-008 2.36554e-014 1.03368e-014 6.36111e-015 2.12984e-007 -1.27893e-006 1.39926e-008 -40.4066 -21.1453 -27.3128 -150.315 35.3728 166.078 -13.4949 56.1248 -7.19781 3.59012e-007 1.59028e-014 7.59118e-007 40.4022 -21.1471 27.3072 150.313 35.3723 -166.082 13.4934 56.1238 7.19543 2.60593e-006 2.04955e-006 1.63787e-006 
-0.00015764 14.5063 11.6911 -9.01395e-015 15.8885 -180 0.0195143 -6.35511 -0.0869437 0.0295303 -12.7102 -0.17331 0.0295304 -12.7103 -0.17331 0.057904 -0.342479 0.0052358 -3.80972e-008 -1.40509 -6.22678e-008 -5.65367 0.75167 -15.0297 -9.14777 59.2152 41.1736 -5.34851 -10.0427 -1.01151 -4.80017 3.2706 -0.227911 -1.98785e-016 7.95139e-016 -3.18055e-015 9.93923e-017 0 -3.18055e-015 3.97569e-016 3.97569e-016 -0 -1.98785e-016 7.95139e-016 -3.18055e-015 -0.012832 0.00232803 8.45884e-005 2.98177e-016 2.54444e-014 -3.18055e-015 -1.98785e-016 7.95139e-016 -3.18055e-015 -0.0160303 0.00298996 0.000859605 -8.82781e-032 -7.95139e-016 -6.36111e-015 -1.98785e-016 7.95139e-016 -3.18055e-015 -0.0126051 0.00312621 0.00283042 -2.42517e-014 3.37934e-014 -3.18055e-015 -1.98785e-016 7.95139e-016 -3.18055e-015 9.93923e-017 0 -3.18055e-015 3.97569e-016 3.97569e-016 -0 4.77111 0.893682 9.57804 0.28156 60.9802 -29.9479 5.36383 -10.0521 0.961173 4.74394 3.24366 0.384642 1.98785e-016 3.97569e-016 -0 -1.06486e-007 4.1384e-007 -7.07511e-009 2.64545e-007 -1.26125e-006 -1.59902e-006 1.98785e-016 3.97569e-016 -0 0.0129331 0.00231342 -8.51831e-005 -2.11241e-007 8.1005e-007 1.60255e-006 1.98785e-016 3.97569e-016 -0 0.0163775 0.00304184 -0.000874541 5.32428e-008 -4.32554e-007 3.54037e-009 1.98785e-016 3.97569e-016 -0 0.0146052 0.00368273 -0.00327176 1.61437e-007 -3.94626e-007 1.6273e-006 1.98785e-016 3.97569e-016 -0 -1.06486e-007 4.1384e-007 -7.07511e-009 2.64545e-007 -1.26125e-006 -1.59902e-006 -40.7771 -20.869 -27.2302 -150.293 35.3903 166.077 -14.2411 56.1489 -6.7174 5.2607e-006 -3.55924e-007 1.42852e-006 40.7727 -20.8705 27.2236 150.292 35.3898 -166.081 14.2385 56.147 6.71666 -7.21033e-007 3.18055e-015 -1.51648e-006 
-0.000173076 14.4136 11.6464 -9.07291e-015 16.3328 -180 0.0195143 -6.35512 -0.0869439 0.0295303 -12.7103 -0.17331 0.0295304 -12.7103 -0.173311 0.086863 -0.399115 0.00789775 1.70905e-007 -1.87148 8.44631e-009 -4.45737 1.18784 -16.3143 -11.4859 59.2934 43.0871 -7.3335 -11.1195 -1.40102 -3.7518 4.27824 -0.300709 2.98177e-016 0 -3.18055e-015 -5.33123e-008 -4.32231e-007 -2.18243e-009 -9.93923e-017 0 6.36111e-015 2.98177e-016 0 -3.18055e-015 -0.0128289 0.00232808 8.55749e-005 2.98177e-016 -3.97569e-016 6.36111e-015 2.98177e-016 0 -3.18055e-015 -0.0160505 0.00299623 0.000856909 9.93923e-017 3.97569e-016 -0 2.98177e-016 0 -3.18055e-015 -0.0125652 0.00312157 0.00282229 -3.29914e-006 -2.37087e-007 -1.75443e-006 2.98177e-016 0 -3.18055e-015 -5.33123e-008 -4.32231e-007 -2.18243e-009 -9.93923e-017 0 6.36111e-015 3.56829 1.31751 10.8714 2.65491 61.2817 -31.897 7.37436 -11.1226 1.37985 3.67236 4.24188 0.448766 2.40529e-014 9.93923e-015 -3.18055e-015 2.36554e-014 1.07344e-014 3.18055e-015 2.42517e-014 1.07344e-014 -0 2.40529e-014 9.93923e-015 -3.18055e-015 0.0129499 0.0023174 -8.66118e-005 7.95139e-016 -7.95139e-016 -6.36111e-015 2.40529e-014 9.93923e-015 -3.18055e-015 0.0163609 0.00304095 -0.000875903 3.56534e-006 -7.72715e-007 -1.37795e-006 2.40529e-014 9.93923e-015 -3.18055e-015 0.0145957 0.00368078 -0.00326496 1.98785e-016 0 3.18055e-015 2.40529e-014 9.93923e-015 -3.18055e-015 2.36554e-014 1.07344e-014 3.18055e-015 2.42517e-014 1.07344e-014 -0 -41.1466 -20.5934 -27.1459 -150.272 35.4076 166.076 -14.9877 56.1695 -6.2366 1.59028e-015 0 -3.18055e-015 41.142 -20.5947 27.1382 150.27 35.4072 -166.08 14.984 56.1669 6.23747 -3.90635e-008 -7.17765e-008 1.83688e-006 
